# xmcd
#
# Track frame offsets:
#	150
#	14832
#	24885
#	39567
#	55535
#	69092
#	80817
#	94702
#	109402
#	118085
#	129270
#	142047
#	157127
#	169227
#	179012
#	195087
#	208427
#	223307
#	240992
#	256617
#	276057
#	293630
#	303092
#
# Disc length: 4273 seconds
# Revision: 0
# Processed by: cddbd v1.5.2PL0 Copyright (c) Steve Scherf et al.
# Submitted via: dBpowerAMP V12.0
#
DISCID=4b10af17
DTITLE=Various Artist - TM Century GoldDisc CX3
DYEAR=1900
DGENRE=Country Christmas
TTITLE0=The Statler Brothers - Christmas Eve
TTITLE1=Sweethearts Of The Rodeo - Jingle Bell Rock
TTITLE2=Marty Robbins - Little Town Of Bethlehem
TTITLE3=Kenny Rogers and Dolly Parton - I Believe In Santa Claus
TTITLE4=B.J. Thomas - Hark! The Herald Angels Sing
TTITLE5=Anne Murray - Christmas Wishes
TTITLE6=Mark O'Conner - Sleigh Ride
TTITLE7=George Strait - For Christ's Sake, It's Christmas
TTITLE8=Willie Nelson - Here Comes Santa Claus
TTITLE9=Emmylou Harris - Light Of The Stable
TTITLE10=Larry Gatlin and The Gatlin Brothers - Oh, Holy Night
TTITLE11=Chet Atkins - I'll Be Home For Christmas
TTITLE12=Barbara Mandrell - Winter Wonderland
TTITLE13=Elvis Presley - Blue Christmas
TTITLE14=Ricky Skaggs and James Taylor - New Star Shining
TTITLE15=Crystal Gayle - Rudolph The Red-Nosed Reindeer
TTITLE16=The Oak Ridge Boys - First Christmas Gift
TTITLE17=Alabama - A Candle In The Window
TTITLE18=The Judds - Beautiful Star Of Bethlehem
TTITLE19=Steve Wariner - Tennessee Christmas
TTITLE20=Anne Murray - The Little Drummer Boy
TTITLE21=Chet Atkins - Silent Night
TTITLE22=Dolly Parton - Hard Candy Christmas
EXTD=
EXTT0=
EXTT1=
EXTT2=
EXTT3=
EXTT4=
EXTT5=
EXTT6=
EXTT7=
EXTT8=
EXTT9=
EXTT10=
EXTT11=
EXTT12=
EXTT13=
EXTT14=
EXTT15=
EXTT16=
EXTT17=
EXTT18=
EXTT19=
EXTT20=
EXTT21=
EXTT22=
PLAYORDER=
